<?xml version="1.0" encoding="utf-8"?><svg xmlns="http://www.w3.org/2000/svg" xmlns:xlink="http://www.w3.org/1999/xlink" width="1917" height="2000" preserveAspectRatio="xMidYMid" viewBox="0 0 1917 2000" style="z-index:1;margin-right:-2px;display:block;background-repeat-y:initial;background-repeat-x:initial;background-color:rgb(163, 193, 201);animation-play-state:paused" ><g transform="translate(958.5,1000) scale(1,1) translate(-958.5,-1000)" style="transform:matrix(1, 0, 0, 1, 0, 0);animation-play-state:paused" ><defs style="animation-play-state:paused" ><path id="path-ww2wenvpdhr-1" d="M-35 -35L35 -35L35 35L-35 35Z" fill="none" stroke="inherit" stroke-width="4.150943396226415" transform="scale(1.06)" style="transform:matrix(1.06, 0, 0, 1.06, 0, 0);animation-play-state:paused" ></path>

  
<path id="path-ww2wenvpdhr-2" d="M0 -37A37 37 0 0 1 0 37A37 37 0 0 1 0 -37" fill="none" stroke="inherit" stroke-width="4.150943396226415" transform="scale(1.06)" style="transform:matrix(1.06, 0, 0, 1.06, 0, 0);animation-play-state:paused" ></path>

  
<path id="path-ww2wenvpdhr-3" d="M0 -34.641L40 34.641L-40 34.641Z" fill="none" stroke="inherit" stroke-width="4.150943396226415" transform="scale(1.06)" style="transform:matrix(1.06, 0, 0, 1.06, 0, 0);animation-play-state:paused" ></path></defs>
<path id="path0" d="M 120.44467436144046 918.2023217952112
c 0 22.035771579923722 -5.391731344023889 6.329423751680219 -11.721155095704107 6.329423751680219
S 97.00236417003225 940.2380933751349 97.00236417003225 918.2023217952112
s 5.391731344023889 -6.329423751680219 11.721155095704107 -6.329423751680219
S 120.44467436144046 896.1665502152875 120.44467436144046 918.2023217952112
z" fill="none" stroke="none" style="animation-play-state:paused" ></path>


<use xlink:href="#path-ww2wenvpdhr-3" x="0" y="0" stroke="#5d7b9a" transform="translate(116.18331909179688 929.122314453125)" style="animation-play-state:paused" ></use>
<path id="path1" d="M 154.32317053047728 1857.5371242008534
c 0 47.47671607142452 -11.616643294071954 13.63692908434534 -25.253572378417296 13.63692908434534
S 103.8160257736427 1905.013840272278 103.8160257736427 1857.5371242008534
s 11.616643294071954 -13.63692908434534 25.253572378417296 -13.63692908434534
S 154.32317053047728 1810.0604081294289 154.32317053047728 1857.5371242008534
z" fill="none" stroke="none" style="animation-play-state:paused" ></path>


<use xlink:href="#path-ww2wenvpdhr-3" x="0" y="0" stroke="#3f658b" transform="translate(130.22250366210938 1871.253173828125)" style="animation-play-state:paused" ></use>
<path id="path2" d="M 169.19669563142418 1197.1490608866914
c 0 39.37917685197168 -9.635330506333496 11.311040159608886 -20.946370665942382 11.311040159608886
S 127.30395429953943 1236.528237738663 127.30395429953943 1197.1490608866914
s 9.635330506333496 -11.311040159608886 20.946370665942382 -11.311040159608886
S 169.19669563142418 1157.7698840347198 169.19669563142418 1197.1490608866914
z" fill="none" stroke="none" style="animation-play-state:paused" ></path>


<use xlink:href="#path-ww2wenvpdhr-3" x="0" y="0" stroke="#d8865a" transform="translate(160.19430541992188 1215.556640625)" style="animation-play-state:paused" ></use>
<path id="path3" d="M 201.7046122650421 73.45108148728895
c 0 63.56596575332695 -15.553374599218294 18.258309312125828 -33.81168391134412 18.258309312125828
S 134.08124444235386 137.0170472406159 134.08124444235386 73.45108148728895
s 15.553374599218294 -18.258309312125828 33.81168391134412 -18.258309312125828
S 201.7046122650421 9.885115733961996 201.7046122650421 73.45108148728895
z" fill="none" stroke="none" style="animation-play-state:paused" ></path>


<use xlink:href="#path-ww2wenvpdhr-1" x="0" y="0" stroke="#3f658b" transform="translate(201.60121154785156 81.76689147949219)" style="animation-play-state:paused" ></use>
<path id="path4" d="M 242.78496042404106 1046.6139933323454
c 0 58.2790799185326 -14.259774873683506 16.739735721280642 -30.99951059496415 16.739735721280642
S 180.78593923411273 1104.893073250878 180.78593923411273 1046.6139933323454
s 14.259774873683506 -16.739735721280642 30.99951059496415 -16.739735721280642
S 242.78496042404106 988.3349134138128 242.78496042404106 1046.6139933323454
z" fill="none" stroke="none" style="animation-play-state:paused" ></path>


<use xlink:href="#path-ww2wenvpdhr-2" x="0" y="0" stroke="#3f658b" transform="translate(212.66944885253906 1063.3917236328125)" style="animation-play-state:paused" ></use>
<path id="path5" d="M 272.4411091648052 801.1688274486738
c 0 39.78695358879633 -9.73510566534378 11.428167520186179 -21.16327318552996 11.428167520186179
S 230.11456279374525 840.9557810374702 230.11456279374525 801.1688274486738
s 9.73510566534378 -11.428167520186179 21.16327318552996 -11.428167520186179
S 272.4411091648052 761.3818738598775 272.4411091648052 801.1688274486738
z" fill="none" stroke="none" style="animation-play-state:paused" ></path>


<use xlink:href="#path-ww2wenvpdhr-2" x="0" y="0" stroke="#3f658b" transform="translate(269.8587951660156 821.418701171875)" style="animation-play-state:paused" ></use>
<path id="path6" d="M 313.8749366829589 404.1068841131485
c 0 64.03810904158136 -15.668899020812459 18.393924937475497 -34.06282395828796 18.393924937475497
S 245.749288766383 468.1449931547299 245.749288766383 404.1068841131485
s 15.668899020812459 -18.393924937475497 34.06282395828796 -18.393924937475497
S 313.8749366829589 340.06877507156713 313.8749366829589 404.1068841131485
z" fill="none" stroke="none" style="animation-play-state:paused" ></path>


<use xlink:href="#path-ww2wenvpdhr-3" x="0" y="0" stroke="#3f658b" transform="translate(297.52008056640625 432.57232666015625)" style="animation-play-state:paused" ></use>
<path id="path7" d="M 324.56608567955186 484.6025804137371
c 0 48.24393557203035 -11.804367214432956 13.857300643029994 -25.66166785746295 13.857300643029994
S 273.242749964626 532.8465159857674 273.242749964626 484.6025804137371
s 11.804367214432956 -13.857300643029994 25.66166785746295 -13.857300643029994
S 324.56608567955186 436.35864484170673 324.56608567955186 484.6025804137371
z" fill="none" stroke="none" style="animation-play-state:paused" ></path>


<use xlink:href="#path-ww2wenvpdhr-1" x="0" y="0" stroke="#d8865a" transform="translate(300.64794921875 498.6350402832031)" style="animation-play-state:paused" ></use>
<path id="path8" d="M 346.01659307186725 1564.2563305141512
c 0 23.596234583525277 -5.773546759798737 6.777641848459388 -12.551188608258126 6.777641848459388
S 320.91421585535096 1587.8525650976765 320.91421585535096 1564.2563305141512
s 5.773546759798737 -6.777641848459388 12.551188608258126 -6.777641848459388
S 346.01659307186725 1540.6600959306259 346.01659307186725 1564.2563305141512
z" fill="none" stroke="none" style="animation-play-state:paused" ></path>


<use xlink:href="#path-ww2wenvpdhr-2" x="0" y="0" stroke="#5d7b9a" transform="translate(333.66400146484375 1571.0389404296875)" style="animation-play-state:paused" ></use>
<path id="path9" d="M 382.0560799608027 996.0679818660673
c 0 27.445881196583663 -6.715481569376853 7.88339140752935 -14.598872976906204 7.88339140752935
S 352.85833400699033 1023.5138630626509 352.85833400699033 996.0679818660673
s 6.715481569376853 -7.88339140752935 14.598872976906204 -7.88339140752935
S 382.0560799608027 968.6221006694836 382.0560799608027 996.0679818660673
z" fill="none" stroke="none" style="animation-play-state:paused" ></path>


<use xlink:href="#path-ww2wenvpdhr-3" x="0" y="0" stroke="#3f658b" transform="translate(381.63641357421875 1005.3497314453125)" style="animation-play-state:paused" ></use>
<path id="path10" d="M 451.73154312417887 259.81547472188066
c 0 61.68771898808391 -15.093803582190743 17.718812900832614 -32.812616483023355 17.718812900832614
S 386.10631015813215 321.5031937099646 386.10631015813215 259.81547472188066
s 15.093803582190743 -17.718812900832614 32.812616483023355 -17.718812900832614
S 451.73154312417887 198.12775573379676 451.73154312417887 259.81547472188066
z" fill="none" stroke="none" style="animation-play-state:paused" ></path>


<use xlink:href="#path-ww2wenvpdhr-1" x="0" y="0" stroke="#d8865a" transform="translate(442.3322448730469 291.9980773925781)" style="animation-play-state:paused" ></use>
<path id="path11" d="M 417.8940394743691 110.47791663410038
c 0 19.60456678607044 -4.796862085953404 5.631098970467041 -10.427961056420445 5.631098970467041
S 397.03811736152824 130.08248342017083 397.03811736152824 110.47791663410038
s 4.796862085953404 -5.631098970467041 10.427961056420445 -5.631098970467041
S 417.8940394743691 90.87334984802995 417.8940394743691 110.47791663410038
z" fill="none" stroke="none" style="animation-play-state:paused" ></path>


<use xlink:href="#path-ww2wenvpdhr-1" x="0" y="0" stroke="#d8865a" transform="translate(416.114990234375 120.86112213134766)" style="animation-play-state:paused" ></use>
<path id="path12" d="M 488.49802762015906 1536.9090903372996
c 0 50.728913376559035 -12.412393698519761 14.571070863479722 -26.983464561999483 14.571070863479722
S 434.5310984961601 1587.6380037138588 434.5310984961601 1536.9090903372996
s 12.412393698519761 -14.571070863479722 26.983464561999483 -14.571070863479722
S 488.49802762015906 1486.1801769607405 488.49802762015906 1536.9090903372996
z" fill="none" stroke="none" style="animation-play-state:paused" ></path>


<use xlink:href="#path-ww2wenvpdhr-3" x="0" y="0" stroke="#3f658b" transform="translate(486.44677734375 1560.2623291015625)" style="animation-play-state:paused" ></use>
<path id="path13" d="M 504.7404193885082 119.38147551451448
c 0 34.279478182062206 -8.387531895610964 9.846233094847657 -18.23376499045862 9.846233094847657
S 468.272889407591 153.66095369657668 468.272889407591 119.38147551451448
s 8.387531895610964 -9.846233094847657 18.23376499045862 -9.846233094847657
S 504.7404193885082 85.10199733245227 504.7404193885082 119.38147551451448
z" fill="none" stroke="none" style="animation-play-state:paused" ></path>


<use xlink:href="#path-ww2wenvpdhr-2" x="0" y="0" stroke="#3f658b" transform="translate(478.6871643066406 133.1863250732422)" style="animation-play-state:paused" ></use>
<path id="path14" d="M 551.2211656282726 1153.453364732081
c 0 35.688541833640336 -8.732302789082208 10.250964143705202 -18.98326693278741 10.250964143705202
S 513.2546317626978 1189.1419065657212 513.2546317626978 1153.453364732081
s 8.732302789082208 -10.250964143705202 18.98326693278741 -10.250964143705202
S 551.2211656282726 1117.7648228984406 551.2211656282726 1153.453364732081
z" fill="none" stroke="none" style="animation-play-state:paused" ></path>


<use xlink:href="#path-ww2wenvpdhr-2" x="0" y="0" stroke="#5d7b9a" transform="translate(545.5364990234375 1171.94140625)" style="animation-play-state:paused" ></use>
<path id="path15" d="M 579.2052604328438 1851.066524234676
c 0 60.43883944942473 -14.78822667379541 17.36009218228157 -32.14831885607698 17.36009218228157
S 514.9086227206898 1911.5053636841008 514.9086227206898 1851.066524234676
s 14.78822667379541 -17.36009218228157 32.14831885607698 -17.36009218228157
S 579.2052604328438 1790.6276847852514 579.2052604328438 1851.066524234676
z" fill="none" stroke="none" style="animation-play-state:paused" ></path>


<use xlink:href="#path-ww2wenvpdhr-1" x="0" y="0" stroke="#d8865a" transform="translate(534.8078002929688 1874.1348876953125)" style="animation-play-state:paused" ></use>
<path id="path16" d="M 610.5566378845381 207.38744837651473
c 0 51.73871352314524 -12.659472457790855 14.861119841754485 -27.520592299545342 14.861119841754485
S 555.5154532854474 259.12616189965996 555.5154532854474 207.38744837651473
s 12.659472457790855 -14.861119841754485 27.520592299545342 -14.861119841754485
S 610.5566378845381 155.6487348533695 610.5566378845381 207.38744837651473
z" fill="none" stroke="none" style="animation-play-state:paused" ></path>


<use xlink:href="#path-ww2wenvpdhr-2" x="0" y="0" stroke="#3f658b" transform="translate(599.8894653320312 232.52049255371094)" style="animation-play-state:paused" ></use>
<path id="path17" d="M 623.0391825493033 862.0152975781602
c 0 33.684590465338694 -8.241974262795637 9.675361091107922 -17.91733535390356 9.675361091107922
S 587.2045118414961 895.699888043499 587.2045118414961 862.0152975781602
s 8.241974262795637 -9.675361091107922 17.91733535390356 -9.675361091107922
S 623.0391825493033 828.3307071128215 623.0391825493033 862.0152975781602
z" fill="none" stroke="none" style="animation-play-state:paused" ></path>


<use xlink:href="#path-ww2wenvpdhr-1" x="0" y="0" stroke="#3f658b" transform="translate(622.0885620117188 876.0285034179688)" style="animation-play-state:paused" ></use>
<path id="path18" d="M 668.7284359293019 381.6066788629475
c 0 58.00029995702331 -14.19156275544187 16.659660625953503 -30.851223381395375 16.659660625953503
S 607.0259891665112 439.6069788199708 607.0259891665112 381.6066788629475
s 14.19156275544187 -16.659660625953503 30.851223381395375 -16.659660625953503
S 668.7284359293019 323.6063789059242 668.7284359293019 381.6066788629475
z" fill="none" stroke="none" style="animation-play-state:paused" ></path>


<use xlink:href="#path-ww2wenvpdhr-1" x="0" y="0" stroke="#d8865a" transform="translate(668.384033203125 395.08648681640625)" style="animation-play-state:paused" ></use>
<path id="path19" d="M 670.1117660133382 536.609426247502
c 0 27.57621886984977 -6.747372702197284 7.920828824318552 -14.668201526515837 7.920828824318552
S 640.7753629603064 564.1856451173518 640.7753629603064 536.609426247502
s 6.747372702197284 -7.920828824318552 14.668201526515837 -7.920828824318552
S 670.1117660133382 509.0332073776523 670.1117660133382 536.609426247502
z" fill="none" stroke="none" style="animation-play-state:paused" ></path>


<use xlink:href="#path-ww2wenvpdhr-3" x="0" y="0" stroke="#d8865a" transform="translate(653.4718017578125 544.9083251953125)" style="animation-play-state:paused" ></use>
<path id="path20" d="M 729.1997156120208 1103.9543655588031
c 0 27.90727626911522 -6.828376108400532 8.015919779426712 -14.844295887827244 8.015919779426712
S 699.5111238363663 1131.8616418279184 699.5111238363663 1103.9543655588031
s 6.828376108400532 -8.015919779426712 14.844295887827244 -8.015919779426712
S 729.1997156120208 1076.0470892896878 729.1997156120208 1103.9543655588031
z" fill="none" stroke="none" style="animation-play-state:paused" ></path>


<use xlink:href="#path-ww2wenvpdhr-2" x="0" y="0" stroke="#3f658b" transform="translate(729.1483154296875 1107.8101806640625)" style="animation-play-state:paused" ></use>
<path id="path21" d="M 757.1422149193271 228.36400460309864
c 0 53.25447857347266 -13.030351140317778 15.29649916472087 -28.326850305038647 15.29649916472087
S 700.4885143092498 281.6184831765713 700.4885143092498 228.36400460309864
s 13.030351140317778 -15.29649916472087 28.326850305038647 -15.29649916472087
S 757.1422149193271 175.10952602962598 757.1422149193271 228.36400460309864
z" fill="none" stroke="none" style="animation-play-state:paused" ></path>


<use xlink:href="#path-ww2wenvpdhr-1" x="0" y="0" stroke="#d8865a" transform="translate(755.437744140625 251.36489868164062)" style="animation-play-state:paused" ></use>
<path id="path22" d="M 767.8203935833809 740.0716116417573
c 0 34.55192041759762 -8.454193293667503 9.924487779522721 -18.378681073190222 9.924487779522721
S 731.0630314370004 774.623532059355 731.0630314370004 740.0716116417573
s 8.454193293667503 -9.924487779522721 18.378681073190222 -9.924487779522721
S 767.8203935833809 705.5196912241596 767.8203935833809 740.0716116417573
z" fill="none" stroke="none" style="animation-play-state:paused" ></path>


<use xlink:href="#path-ww2wenvpdhr-3" x="0" y="0" stroke="#3f658b" transform="translate(766.6480102539062 755.2451782226562)" style="animation-play-state:paused" ></use>
<path id="path23" d="M 817.626894828848 1373.2498822095977
c 0 40.672599504426074 -9.951806261721273 11.682555176803234 -21.634361438524508 11.682555176803234
S 774.358171951799 1413.9224817140237 774.358171951799 1373.2498822095977
s 9.951806261721273 -11.682555176803234 21.634361438524508 -11.682555176803234
S 817.626894828848 1332.5772827051717 817.626894828848 1373.2498822095977
z" fill="none" stroke="none" style="animation-play-state:paused" ></path>


<use xlink:href="#path-ww2wenvpdhr-1" x="0" y="0" stroke="#5d7b9a" transform="translate(797.4654541015625 1385.0806884765625)" style="animation-play-state:paused" ></use>
<path id="path24" d="M 826.1290914527505 578.7877022157066
c 0 21.613134687763555 -5.288320189559167 6.208028048612936 -11.496348238172104 6.208028048612936
S 803.1363949764062 600.4008369034702 803.1363949764062 578.7877022157066
s 5.288320189559167 -6.208028048612936 11.496348238172104 -6.208028048612936
S 826.1290914527505 557.174567527943 826.1290914527505 578.7877022157066
z" fill="none" stroke="none" style="animation-play-state:paused" ></path>


<use xlink:href="#path-ww2wenvpdhr-2" x="0" y="0" stroke="#5d7b9a" transform="translate(825.7603759765625 586.392578125)" style="animation-play-state:paused" ></use>
<path id="path25" d="M 884.5425475776746 470.9091857180651
c 0 46.61370324739919 -11.405480581810439 13.3890424221253 -24.794523003935737 13.3890424221253
S 834.953501569803 517.5228889654643 834.953501569803 470.9091857180651
s 11.405480581810439 -13.3890424221253 24.794523003935737 -13.3890424221253
S 884.5425475776746 424.2954824706659 884.5425475776746 470.9091857180651
z" fill="none" stroke="none" style="animation-play-state:paused" ></path>


<use xlink:href="#path-ww2wenvpdhr-2" x="0" y="0" stroke="#3f658b" transform="translate(883.4183349609375 489.3660888671875)" style="animation-play-state:paused" ></use>
<path id="path26" d="M 888.7198263201763 985.4011236530464
c 0 26.867526515081018 -6.573969253690035 7.717268254331781 -14.291237508021817 7.717268254331781
S 860.1373513041326 1012.2686501681275 860.1373513041326 985.4011236530464
s 6.573969253690035 -7.717268254331781 14.291237508021817 -7.717268254331781
S 888.7198263201763 958.5335971379653 888.7198263201763 985.4011236530464
z" fill="none" stroke="none" style="animation-play-state:paused" ></path>


<use xlink:href="#path-ww2wenvpdhr-2" x="0" y="0" stroke="#d8865a" transform="translate(861.6063842773438 998.6548461914062)" style="animation-play-state:paused" ></use>
<path id="path27" d="M 942.244335518939 1395.634836475093
c 0 39.209707521024995 -9.59386460620824 11.262362798592285 -20.856227404800528 11.262362798592285
S 900.531880709338 1434.8445439961179 900.531880709338 1395.634836475093
s 9.59386460620824 -11.262362798592285 20.856227404800528 -11.262362798592285
S 942.244335518939 1356.425128954068 942.244335518939 1395.634836475093
z" fill="none" stroke="none" style="animation-play-state:paused" ></path>


<use xlink:href="#path-ww2wenvpdhr-2" x="0" y="0" stroke="#d8865a" transform="translate(934.7509765625 1415.1318359375)" style="animation-play-state:paused" ></use>
<path id="path28" d="M 989.5959106013963 1224.8674666601337
c 0 61.73714710357503 -15.10589769555559 17.733010338260915 -32.83890803381651 17.733010338260915
S 923.9180945337632 1286.6046137637088 923.9180945337632 1224.8674666601337
s 15.10589769555559 -17.733010338260915 32.83890803381651 -17.733010338260915
S 989.5959106013963 1163.1303195565586 989.5959106013963 1224.8674666601337
z" fill="none" stroke="none" style="animation-play-state:paused" ></path>


<use xlink:href="#path-ww2wenvpdhr-2" x="0" y="0" stroke="#5d7b9a" transform="translate(983.1727294921875 1257.7764892578125)" style="animation-play-state:paused" ></use>
<path id="path29" d="M 993.4624759592677 1828.1491504489663
c 0 60.88801728216314 -14.898131888188852 17.489111347004307 -32.387243235193154 17.489111347004307
S 928.6879894888814 1889.0371677311296 928.6879894888814 1828.1491504489663
s 14.898131888188852 -17.489111347004307 32.387243235193154 -17.489111347004307
S 993.4624759592677 1767.2611331668031 993.4624759592677 1828.1491504489663
z" fill="none" stroke="none" style="animation-play-state:paused" ></path>


<use xlink:href="#path-ww2wenvpdhr-1" x="0" y="0" stroke="#5d7b9a" transform="translate(975.5030517578125 1853.1285400390625)" style="animation-play-state:paused" ></use>
<path id="path30" d="M 1019.6149355889274 1796.2730925893347
c 0 47.92470379791504 -11.726257312255807 13.765606410039426 -25.491863722295236 13.765606410039426
S 968.631208144337 1844.1977963872498 968.631208144337 1796.2730925893347
s 11.726257312255807 -13.765606410039426 25.491863722295236 -13.765606410039426
S 1019.6149355889274 1748.3483887914197 1019.6149355889274 1796.2730925893347
z" fill="none" stroke="none" style="animation-play-state:paused" ></path>


<use xlink:href="#path-ww2wenvpdhr-1" x="0" y="0" stroke="#3f658b" transform="translate(1010.7562255859375 1820.3193359375)" style="animation-play-state:paused" ></use>
<path id="path31" d="M 1050.0216665393355 449.5911373242638
c 0 49.02492519135613 -11.995460419161606 14.081627448581017 -26.077087867742623 14.081627448581017
S 997.8674908038502 498.61606251561994 997.8674908038502 449.5911373242638
s 11.995460419161606 -14.081627448581017 26.077087867742623 -14.081627448581017
S 1050.0216665393355 400.56621213290765 1050.0216665393355 449.5911373242638
z" fill="none" stroke="none" style="animation-play-state:paused" ></path>


<use xlink:href="#path-ww2wenvpdhr-1" x="0" y="0" stroke="#3f658b" transform="translate(1032.3758544921875 467.1417541503906)" style="animation-play-state:paused" ></use>
<path id="path32" d="M 1073.6649831475606 838.5041320281338
c 0 23.74607163360028 -5.810209016731982 6.820680150076676 -12.63088916680866 6.820680150076676
S 1048.4032048139434 862.2502036617341 1048.4032048139434 838.5041320281338
s 5.810209016731982 -6.820680150076676 12.63088916680866 -6.820680150076676
S 1073.6649831475606 814.7580603945335 1073.6649831475606 838.5041320281338
z" fill="none" stroke="none" style="animation-play-state:paused" ></path>


<use xlink:href="#path-ww2wenvpdhr-3" x="0" y="0" stroke="#3f658b" transform="translate(1073.350341796875 846.1177978515625)" style="animation-play-state:paused" ></use>
<path id="path33" d="M 1117.0475000709018 1387.2783449852193
c 0 63.78365530745584 -15.606639064590256 18.32083716277987 -33.92747622737013 18.32083716277987
S 1049.1925476161616 1451.062000292675 1049.1925476161616 1387.2783449852193
s 15.606639064590256 -18.32083716277987 33.92747622737013 -18.32083716277987
S 1117.0475000709018 1323.4946896777635 1117.0475000709018 1387.2783449852193
z" fill="none" stroke="none" style="animation-play-state:paused" ></path>


<use xlink:href="#path-ww2wenvpdhr-2" x="0" y="0" stroke="#d8865a" transform="translate(1076.0413818359375 1407.6171875)" style="animation-play-state:paused" ></use>
<path id="path34" d="M 1141.583757000457 290.7412087724038
c 0 31.12934631982251 -7.616754950594868 8.941407985480934 -16.558162936075803 8.941407985480934
S 1108.4674311283052 321.8705550922263 1108.4674311283052 290.7412087724038
s 7.616754950594868 -8.941407985480934 16.558162936075803 -8.941407985480934
S 1141.583757000457 259.6118624525813 1141.583757000457 290.7412087724038
z" fill="none" stroke="none" style="animation-play-state:paused" ></path>


<use xlink:href="#path-ww2wenvpdhr-3" x="0" y="0" stroke="#5d7b9a" transform="translate(1141.5697021484375 292.9457702636719)" style="animation-play-state:paused" ></use>
<path id="path35" d="M 1167.338574323494 111.8221467419253
c 0 32.974465191912195 -8.068220206531706 9.47138893810244 -17.539609144634145 9.47138893810244
S 1132.2593560342257 144.79661193383748 1132.2593560342257 111.8221467419253
s 8.068220206531706 -9.47138893810244 17.539609144634145 -9.47138893810244
S 1167.338574323494 78.8476815500131 1167.338574323494 111.8221467419253
z" fill="none" stroke="none" style="animation-play-state:paused" ></path>


<use xlink:href="#path-ww2wenvpdhr-3" x="0" y="0" stroke="#3f658b" transform="translate(1143.7176513671875 123.93490600585938)" style="animation-play-state:paused" ></use>
<path id="path36" d="M 1209.3542125195754 1552.8658277818233
c 0 29.527534847953138 -7.224822356414065 8.481313201007817 -15.70613555742188 8.481313201007817
S 1177.9419414047316 1582.3933626297764 1177.9419414047316 1552.8658277818233
s 7.224822356414065 -8.481313201007817 15.70613555742188 -8.481313201007817
S 1209.3542125195754 1523.3382929338702 1209.3542125195754 1552.8658277818233
z" fill="none" stroke="none" style="animation-play-state:paused" ></path>


<use xlink:href="#path-ww2wenvpdhr-3" x="0" y="0" stroke="#3f658b" transform="translate(1202.2413330078125 1566.360107421875)" style="animation-play-state:paused" ></use>
<path id="path37" d="M 1236.3940260496945 1748.98762583094
c 0 23.943534327009345 -5.858524356608669 6.877398157758004 -12.735922514366674 6.877398157758004
S 1210.9221810209613 1772.9311601579493 1210.9221810209613 1748.98762583094
s 5.858524356608669 -6.877398157758004 12.735922514366674 -6.877398157758004
S 1236.3940260496945 1725.0440915039308 1236.3940260496945 1748.98762583094
z" fill="none" stroke="none" style="animation-play-state:paused" ></path>


<use xlink:href="#path-ww2wenvpdhr-3" x="0" y="0" stroke="#d8865a" transform="translate(1236.3851318359375 1750.4486083984375)" style="animation-play-state:paused" ></use>
<path id="path38" d="M 1287.7523937271417 743.8550479725353
c 0 51.671605653472625 -12.643052447126278 14.841844177061287 -27.484896624187563 14.841844177061287
S 1232.7826004787667 795.5266536260079 1232.7826004787667 743.8550479725353
s 12.643052447126278 -14.841844177061287 27.484896624187563 -14.841844177061287
S 1287.7523937271417 692.1834423190627 1287.7523937271417 743.8550479725353
z" fill="none" stroke="none" style="animation-play-state:paused" ></path>


<use xlink:href="#path-ww2wenvpdhr-2" x="0" y="0" stroke="#3f658b" transform="translate(1246.102783203125 766.7164916992188)" style="animation-play-state:paused" ></use>
<path id="path39" d="M 1283.0690345410037 432.8407540748485
c 0 19.05914519861395 -4.663407867745966 5.4744353230061344 -10.1378431907521 5.4744353230061344
S 1262.7933481594994 451.8998992734625 1262.7933481594994 432.8407540748485
s 4.663407867745966 -5.4744353230061344 10.1378431907521 -5.4744353230061344
S 1283.0690345410037 413.78160887623454 1283.0690345410037 432.8407540748485
z" fill="none" stroke="none" style="animation-play-state:paused" ></path>


<use xlink:href="#path-ww2wenvpdhr-3" x="0" y="0" stroke="#5d7b9a" transform="translate(1282.01611328125 442.2622375488281)" style="animation-play-state:paused" ></use>
<path id="path40" d="M 1324.8504753188245 549.1360690609615
c 0 58.821745939536086 -14.392554857546063 16.895607876249727 -31.28816273379579 16.895607876249727
S 1262.2741498512328 607.9578150004976 1262.2741498512328 549.1360690609615
s 14.392554857546063 -16.895607876249727 31.28816273379579 -16.895607876249727
S 1324.8504753188245 490.31432312142545 1324.8504753188245 549.1360690609615
z" fill="none" stroke="none" style="animation-play-state:paused" ></path>


<use xlink:href="#path-ww2wenvpdhr-1" x="0" y="0" stroke="#5d7b9a" transform="translate(1292.5797119140625 566.0782470703125)" style="animation-play-state:paused" ></use>
<path id="path41" d="M 1371.214391285352 323.446795285543
c 0 59.02285388957182 -14.441762121916506 16.953372925728075 -31.395135047644583 16.953372925728075
S 1308.4241211900628 382.4696491751148 1308.4241211900628 323.446795285543
s 14.441762121916506 -16.953372925728075 31.395135047644583 -16.953372925728075
S 1371.214391285352 264.42394139597116 1371.214391285352 323.446795285543
z" fill="none" stroke="none" style="animation-play-state:paused" ></path>


<use xlink:href="#path-ww2wenvpdhr-3" x="0" y="0" stroke="#5d7b9a" transform="translate(1354.3233642578125 348.1065368652344)" style="animation-play-state:paused" ></use>
<path id="path42" d="M 1378.7326572059783 159.02128105641333
c 0 54.25891166638455 -13.276116684328134 15.585006542472158 -28.86112322680029 15.585006542472158
S 1321.0104107523775 213.2801927227979 1321.0104107523775 159.02128105641333
s 13.276116684328134 -15.585006542472158 28.86112322680029 -15.585006542472158
S 1378.7326572059783 104.76236939002878 1378.7326572059783 159.02128105641333
z" fill="none" stroke="none" style="animation-play-state:paused" ></path>


<use xlink:href="#path-ww2wenvpdhr-2" x="0" y="0" stroke="#3f658b" transform="translate(1346.2274169921875 175.26544189453125)" style="animation-play-state:paused" ></use>
<path id="path43" d="M 1431.2626095074063 1444.0928239336913
c 0 46.110803913908114 -11.282430744892409 13.244592613569353 -24.52702335846176 13.244592613569353
S 1382.2085627904828 1490.2036278475994 1382.2085627904828 1444.0928239336913
s 11.282430744892409 -13.244592613569353 24.52702335846176 -13.244592613569353
S 1431.2626095074063 1397.9820200197832 1431.2626095074063 1444.0928239336913
z" fill="none" stroke="none" style="animation-play-state:paused" ></path>


<use xlink:href="#path-ww2wenvpdhr-1" x="0" y="0" stroke="#3f658b" transform="translate(1430.102783203125 1462.5950927734375)" style="animation-play-state:paused" ></use>
<path id="path44" d="M 1431.9989078149215 610.8440984541818
c 0 44.96436552808152 -11.001919224956115 12.915296481470225 -23.91721570642634 12.915296481470225
S 1384.1644764020689 655.8084639822633 1384.1644764020689 610.8440984541818
s 11.001919224956115 -12.915296481470225 23.91721570642634 -12.915296481470225
S 1431.9989078149215 565.8797329261002 1431.9989078149215 610.8440984541818
z" fill="none" stroke="none" style="animation-play-state:paused" ></path>


<use xlink:href="#path-ww2wenvpdhr-2" x="0" y="0" stroke="#3f658b" transform="translate(1415.3203125 626.5850830078125)" style="animation-play-state:paused" ></use>
<path id="path45" d="M 1481.9481778312381 1621.8357328858635
c 0 47.59714680214321 -11.646110387758442 13.671520889977304 -25.317631277735746 13.671520889977304
S 1431.3129152757667 1669.4328796880068 1431.3129152757667 1621.8357328858635
s 11.646110387758442 -13.671520889977304 25.317631277735746 -13.671520889977304
S 1481.9481778312381 1574.2385860837203 1481.9481778312381 1621.8357328858635
z" fill="none" stroke="none" style="animation-play-state:paused" ></path>


<use xlink:href="#path-ww2wenvpdhr-3" x="0" y="0" stroke="#3f658b" transform="translate(1468.718017578125 1642.0599365234375)" style="animation-play-state:paused" ></use>
<path id="path46" d="M 1481.35871519761 1645.7830480864448
c 0 40.362782739515545 -9.876000032009122 11.593565254967231 -21.469565286976355 11.593565254967231
S 1438.4195846236573 1686.1458308259603 1438.4195846236573 1645.7830480864448
s 9.876000032009122 -11.593565254967231 21.469565286976355 -11.593565254967231
S 1481.35871519761 1605.4202653469292 1481.35871519761 1645.7830480864448
z" fill="none" stroke="none" style="animation-play-state:paused" ></path>


<use xlink:href="#path-ww2wenvpdhr-2" x="0" y="0" stroke="#3f658b" transform="translate(1464.50048828125 1658.7257080078125)" style="animation-play-state:paused" ></use>
<path id="path47" d="M 1522.3248877446392 528.4621744634596
c 0 27.32214763415836 -6.68520633601747 7.847850916194422 -14.533057252211892 7.847850916194422
S 1493.2587732402155 555.784322097618 1493.2587732402155 528.4621744634596
s 6.68520633601747 -7.847850916194422 14.533057252211892 -7.847850916194422
S 1522.3248877446392 501.1400268293013 1522.3248877446392 528.4621744634596
z" fill="none" stroke="none" style="animation-play-state:paused" ></path>


<use xlink:href="#path-ww2wenvpdhr-2" x="0" y="0" stroke="#d8865a" transform="translate(1522.255615234375 532.8316650390625)" style="animation-play-state:paused" ></use>
<path id="path48" d="M 1560.497411705626 1249.4999965267941
c 0 46.2640129354583 -11.319918058675965 13.28859946018483 -24.608517518860793 13.28859946018483
S 1511.2803766679046 1295.7640094622525 1511.2803766679046 1249.4999965267941
s 11.319918058675965 -13.28859946018483 24.608517518860793 -13.28859946018483
S 1560.497411705626 1203.2359835913358 1560.497411705626 1249.4999965267941
z" fill="none" stroke="none" style="animation-play-state:paused" ></path>


<use xlink:href="#path-ww2wenvpdhr-2" x="0" y="0" stroke="#5d7b9a" transform="translate(1543.4508056640625 1265.77685546875)" style="animation-play-state:paused" ></use>
<path id="path49" d="M 1630.2978855577662 1730.0836282045902
c 0 48.319700817070455 -11.82290551907043 13.879063000647898 -25.701968519718328 13.879063000647898
S 1578.8939485183296 1778.4033290216607 1578.8939485183296 1730.0836282045902
s 11.82290551907043 -13.879063000647898 25.701968519718328 -13.879063000647898
S 1630.2978855577662 1681.7639273875197 1630.2978855577662 1730.0836282045902
z" fill="none" stroke="none" style="animation-play-state:paused" ></path>


<use xlink:href="#path-ww2wenvpdhr-2" x="0" y="0" stroke="#3f658b" transform="translate(1623.9139404296875 1755.6912841796875)" style="animation-play-state:paused" ></use>
<path id="path50" d="M 1622.842039908965 1120.2323380710384
c 0 24.924075460067787 -6.098443995548501 7.159042951296067 -13.257486946844567 7.159042951296067
S 1596.3270660152757 1145.1564135311062 1596.3270660152757 1120.2323380710384
s 6.098443995548501 -7.159042951296067 13.257486946844567 -7.159042951296067
S 1622.842039908965 1095.3082626109706 1622.842039908965 1120.2323380710384
z" fill="none" stroke="none" style="animation-play-state:paused" ></path>


<use xlink:href="#path-ww2wenvpdhr-3" x="0" y="0" stroke="#5d7b9a" transform="translate(1622.815673828125 1122.83935546875)" style="animation-play-state:paused" ></use>
<path id="path51" d="M 1665.5597382138792 267.69042607261923
c 0 60.438412211266986 -14.788122136799368 17.35996946493839 -32.14809160173776 17.35996946493839
S 1601.2635550104035 328.12883828388624 1601.2635550104035 267.69042607261923
s 14.788122136799368 -17.35996946493839 32.14809160173776 -17.35996946493839
S 1665.5597382138792 207.25201386135225 1665.5597382138792 267.69042607261923
z" fill="none" stroke="none" style="animation-play-state:paused" ></path>


<use xlink:href="#path-ww2wenvpdhr-3" x="0" y="0" stroke="#5d7b9a" transform="translate(1652.017822265625 296.1722106933594)" style="animation-play-state:paused" ></use>
<path id="path52" d="M 1698.2742085055927 764.1651653589146
c 0 51.528879193738426 -12.608130015489188 14.800848279052527 -27.408978294541715 14.800848279052527
S 1643.4562519165095 815.694044552653 1643.4562519165095 764.1651653589146
s 12.608130015489188 -14.800848279052527 27.408978294541715 -14.800848279052527
S 1698.2742085055927 712.6362861651761 1698.2742085055927 764.1651653589146
z" fill="none" stroke="none" style="animation-play-state:paused" ></path>


<use xlink:href="#path-ww2wenvpdhr-3" x="0" y="0" stroke="#5d7b9a" transform="translate(1697.1529541015625 783.8840942382812)" style="animation-play-state:paused" ></use>
<path id="path53" d="M 1727.7095081875086 855.6702435221298
c 0 61.25532337820474 -14.988004656369244 17.59461416182477 -32.582618818194014 17.59461416182477
S 1662.5442705511205 916.9255669003345 1662.5442705511205 855.6702435221298
s 14.988004656369244 -17.59461416182477 32.582618818194014 -17.59461416182477
S 1727.7095081875086 794.4149201439251 1727.7095081875086 855.6702435221298
z" fill="none" stroke="none" style="animation-play-state:paused" ></path>


<use xlink:href="#path-ww2wenvpdhr-3" x="0" y="0" stroke="#3f658b" transform="translate(1724.2745361328125 886.038818359375)" style="animation-play-state:paused" ></use>
<path id="path54" d="M 1754.7692399473538 1033.7705076818092
c 0 22.99455492169767 -5.626327268074961 6.604818966870607 -12.23114623494557 6.604818966870607
S 1730.3069474774627 1056.765062603507 1730.3069474774627 1033.7705076818092
s 5.626327268074961 -6.604818966870607 12.23114623494557 -6.604818966870607
S 1754.7692399473538 1010.7759527601115 1754.7692399473538 1033.7705076818092
z" fill="none" stroke="none" style="animation-play-state:paused" ></path>


<use xlink:href="#path-ww2wenvpdhr-1" x="0" y="0" stroke="#5d7b9a" transform="translate(1750.1033935546875 1044.9989013671875)" style="animation-play-state:paused" ></use>
<path id="path55" d="M 1755.4095507841353 409.7584402102765
c 0 46.14521114571773 -11.290849535654337 13.254475541855093 -24.545325077509432 13.254475541855093
S 1706.3189006291163 455.9036513559942 1706.3189006291163 409.7584402102765
s 11.290849535654337 -13.254475541855093 24.545325077509432 -13.254475541855093
S 1755.4095507841353 363.61322906455877 1755.4095507841353 409.7584402102765
z" fill="none" stroke="none" style="animation-play-state:paused" ></path>


<use xlink:href="#path-ww2wenvpdhr-3" x="0" y="0" stroke="#3f658b" transform="translate(1754.2298583984375 428.3739318847656)" style="animation-play-state:paused" ></use>
<path id="path56" d="M 1803.9451416089441 1447.0799553757079
c 0 25.880298342957442 -6.33241342434065 7.433702715530329 -13.766116139870979 7.433702715530329
S 1776.4129093292022 1472.9602537186654 1776.4129093292022 1447.0799553757079
s 6.33241342434065 -7.433702715530329 13.766116139870979 -7.433702715530329
S 1803.9451416089441 1421.1996570327503 1803.9451416089441 1447.0799553757079
z" fill="none" stroke="none" style="animation-play-state:paused" ></path>


<use xlink:href="#path-ww2wenvpdhr-2" x="0" y="0" stroke="#d8865a" transform="translate(1790.3033447265625 1454.5155029296875)" style="animation-play-state:paused" ></use>
<path id="path57" d="M 1838.123354422192 289.48043524022563
c 0 26.276423296158306 -6.429337615017457 7.547483287194407 -13.976820902211864 7.547483287194407
S 1810.1697126177685 315.75685853638396 1810.1697126177685 289.48043524022563
s 6.429337615017457 -7.547483287194407 13.976820902211864 -7.547483287194407
S 1838.123354422192 263.2040119440673 1838.123354422192 289.48043524022563
z" fill="none" stroke="none" style="animation-play-state:paused" ></path>


<use xlink:href="#path-ww2wenvpdhr-2" x="0" y="0" stroke="#3f658b" transform="translate(1835.8016357421875 303.36956787109375)" style="animation-play-state:paused" ></use></g></svg>